Coordinates
version=1
nRows=4
nColumns=63
inDegrees=yes

Units are S.I. units (second, meters, Newtons, ...)
If the header above contains a line with 'inDegrees', this indicates whether rotational values are in degrees (yes) or radians (no).

endheader
time	pelvis_tilt	pelvis_list	pelvis_rotation	pelvis_tx	pelvis_ty	pelvis_tz	hip_flexion_r	hip_adduction_r	hip_rotation_r	knee_angle_r	knee_angle_r_beta	ankle_angle_r	subtalar_angle_r	mtp_angle_r	hip_flexion_l	hip_adduction_l	hip_rotation_l	knee_angle_l	knee_angle_l_beta	ankle_angle_l	subtalar_angle_l	mtp_angle_l	L5_S1_Flex_Ext	L5_S1_Lat_Bending	L5_S1_axial_rotation	L4_L5_Flex_Ext	L4_L5_Lat_Bending	L4_L5_axial_rotation	L3_L4_Flex_Ext	L3_L4_Lat_Bending	L3_L4_axial_rotation	L2_L3_Flex_Ext	L2_L3_Lat_Bending	L2_L3_axial_rotation	L1_L2_Flex_Ext	L1_L2_Lat_Bending	L1_L2_axial_rotation	L1_T12_Flex_Ext	L1_T12_Lat_Bending	L1_T12_axial_rotation	Abs_r3	Abs_r2	Abs_r1	Abs_t1	Abs_t2	neck_flexion	neck_bending	neck_rotation	arm_flex_r	arm_add_r	arm_rot_r	elbow_flex_r	pro_sup_r	wrist_flex_r	wrist_dev_r	arm_flex_l	arm_add_l	arm_rot_l	elbow_flex_l	pro_sup_l	wrist_flex_l	wrist_dev_l
      3.53333333	      2.31350915	     -9.27932367	     85.87672174	      0.26449624	      1.02514592	      0.38910441	     12.49322493	      0.90070591	    -17.93114136	     11.49380262	      0.20060470	     26.32421819	     15.86227377	      0.00000000	     12.39922484	     -2.97367960	      4.35405491	     13.03124401	      0.22743811	     20.70187720	    -13.44991274	      0.00000000	     -0.02212255	     -0.13592110	      0.62146994	     -0.04108378	     -0.18077506	      0.66031182	     -0.03634513	     -0.33047856	      0.66031182	     -0.02528386	     -0.33047856	      0.54378620	     -0.02054300	     -0.27717031	      0.50494433	     -0.01264082	     -0.21054178	      0.46610246	     -0.15801913	     -1.53756666	      3.45642939	      0.00000000	      0.00000000	     20.42871285	     16.53982577	     -0.00770600	     79.88961593	    -45.20688480	     -9.67031716	    149.80192903	     87.76986894	    -14.29840516	      0.13908802	      6.93935062	    -17.52480418	    103.55043659	     13.32025779	     10.01246136	    -12.23019113	    -13.36528892
      3.55000000	      2.50987497	     -9.33674119	     85.86029848	      0.26377788	      1.02521657	      0.38880802	     12.50375547	      1.06398671	    -17.97883421	     11.45220571	      0.19987870	     26.18876962	     15.95431265	      0.00000000	     12.41172616	     -3.12290591	      4.40775062	     13.01329831	      0.22712490	     20.77560378	    -13.44172535	      0.00000000	     -0.01111183	     -0.11212543	      0.55209996	     -0.02063578	     -0.14912682	      0.58660621	     -0.01825562	     -0.27262177	      0.58660621	     -0.01269971	     -0.27262177	      0.48308747	     -0.01031844	     -0.22864617	      0.44858122	     -0.00634930	     -0.17368229	      0.41407497	     -0.07937067	     -1.26838527	      3.07061436	      0.00000000	      0.00000000	     21.70726972	     16.54735378	     -0.58084300	     78.59225996	    -45.30497256	    -10.71142344	    149.80398859	     88.38340975	    -15.02285282	      0.19950209	      6.84222752	    -17.47011248	    103.71059514	     13.38650651	      9.89166846	    -12.48111219	    -13.49859689
      3.56666667	      2.66625143	     -9.41518526	     85.91862348	      0.26322673	      1.02526452	      0.38826463	     12.47960110	      1.20740742	    -18.09641357	     11.32103727	      0.19758938	     26.10152823	     16.03251178	      0.00000000	     12.45229124	     -3.24119187	      4.50371044	     13.00816848	      0.22703537	     20.99321224	    -13.24361632	      0.00000000	      0.01206750	     -0.10194223	      0.49212637	      0.02241056	     -0.13558316	      0.52288427	      0.01982570	     -0.24786233	      0.52288427	      0.01379195	     -0.24786233	      0.43061057	      0.01120588	     -0.20788059	      0.39985267	      0.00689537	     -0.15790851	      0.36909478	      0.08619696	     -1.15319085	      2.73705922	      0.00000000	      0.00000000	     23.25066203	     16.42255184	     -1.68365618	     76.65535013	    -45.57735830	    -12.13945100	    149.80579667	     88.74390112	    -15.70017372	      0.34171306	      6.76138848	    -17.49520095	    103.74686196	     13.45587400	      9.62534779	    -13.07754014	    -14.03156617
      3.58333333	      2.75866198	     -9.48833020	     85.92089255	      0.26285158	      1.02526426	      0.38758912	     12.46965143	      1.28881067	    -18.13974524	     11.23316438	      0.19605570	     26.04671854	     16.12958074	      0.00000000	     12.44522226	     -3.31299578	      4.45863943	     12.93902103	      0.22582852	     21.26606691	    -12.98693836	      0.00000000	      0.04601907	     -0.09869446	      0.43152648	      0.08546201	     -0.13126363	      0.45849689	      0.07560473	     -0.23996571	      0.45849689	      0.05259519	     -0.23996571	      0.37758567	      0.04273331	     -0.20125775	      0.35061527	      0.02629530	     -0.15287772	      0.32364486	      0.32870961	     -1.11645149	      2.40002085	      0.00000000	      0.00000000	     24.85035016	     16.20914180	     -2.57862645	     74.24759241	    -45.57050719	    -13.63685700	    149.79811872	     88.94155292	    -16.23537528	      0.82864224	      6.63681472	    -17.53385079	    103.76083145	     13.45107487	      9.44111747	    -13.90138152	    -14.73104988
